# xmcd CD database file
#
# Track frame offsets:
#	150
#	15990
#	45754
#	71646
#	104481
#	134909
#
# Disc length: 2246 seconds
#
# Revision: 0
# Processed by: cddbd v1.5.2PL0 Copyright (c) Steve Scherf et al.
# Submitted via: CDex 1.51
#
DISCID=4b08c406
DTITLE=The Strides - La Mar
DYEAR=2008
DGENRE=Jazz
TTITLE0=Satta Amasagana
TTITLE1=Deuce-A-Mo
TTITLE2=Step Back
TTITLE3=The Fisherman Bash
TTITLE4=La Mar
TTITLE5=Mr Strides
EXTD=YEAR: 2008
EXTT0=
EXTT1=
EXTT2=
EXTT3=
EXTT4=
EXTT5=
PLAYORDER=
